<?xml version="1.0" standalone="no"?>
<!DOCTYPE svg PUBLIC "-//W3C//DTD SVG 20010904//EN"
 "http://www.w3.org/TR/2001/REC-SVG-20010904/DTD/svg10.dtd">
<svg version="1.0" xmlns="http://www.w3.org/2000/svg"
 width="512.000000pt" height="512.000000pt" viewBox="0 0 512.000000 512.000000"
 preserveAspectRatio="xMidYMid meet">
<metadata>
Created by potrace 1.14, written by Peter Selinger 2001-2017
</metadata>
<g transform="translate(0.000000,512.000000) scale(0.100000,-0.100000)"
fill="#000000" stroke="none">
<path d="M2450 5108 c-49 -12 -76 -26 -146 -75 -100 -69 -171 -199 -175 -319
-1 -30 -5 -55 -8 -55 -3 -1 -103 -2 -221 -3 -202 -2 -218 -3 -263 -25 -57 -28
-121 -98 -140 -154 -7 -23 -13 -66 -13 -95 l1 -52 -35 -1 c-19 0 -150 -1 -290
-2 -230 -3 -259 -5 -295 -22 -96 -47 -155 -114 -178 -203 -9 -38 -12 -462 -12
-1958 l1 -1909 21 -47 c28 -62 93 -131 151 -160 l47 -23 1645 -3 c1509 -2
1649 -1 1698 14 89 29 177 123 198 214 11 47 12 3804 2 3855 -24 113 -102 195
-223 232 -16 6 -147 11 -289 11 -143 1 -262 4 -264 7 -3 2 -6 31 -7 62 -3 75
-35 143 -91 191 -65 58 -100 65 -344 67 -118 2 -218 3 -222 4 -5 0 -8 23 -8
50 0 144 -100 300 -234 365 -91 44 -210 58 -306 34z m162 -253 c8 9 68 -17 62
-26 -3 -5 2 -6 10 -3 9 3 16 1 16 -5 0 -6 6 -11 13 -11 18 0 78 -73 72 -88 -3
-7 -1 -11 4 -7 12 7 32 -53 35 -107 5 -105 -64 -214 -163 -256 -47 -19 -156
-19 -204 2 -95 41 -161 143 -160 247 0 63 35 155 54 143 8 -5 9 -3 5 5 -27 44
176 138 235 110 9 -5 18 -6 21 -4z"/>
</g>
</svg>
